<svg width="62" height="75" viewBox="0 0 62 75" fill="none" xmlns="http://www.w3.org/2000/svg">
<path d="M53.2642 30.0905C54.3168 23.0423 48.9489 19.2551 41.6033 16.7265L43.9828 7.1746L38.1718 5.72696L35.8558 15.0239C34.33 14.6438 32.7601 14.2833 31.2015 13.9299L33.5329 4.57131L27.7219 3.12368L25.3403 12.6663C24.0757 12.3775 22.8317 12.0938 21.6267 11.7936L21.6339 11.7648L13.6196 9.76392L12.0728 15.9729C12.0728 15.9729 16.3868 16.9602 16.2933 17.0199C18.6498 17.6069 19.0746 19.1626 19.0027 20.3981L16.2923 31.2781C16.4568 31.3191 16.6645 31.3795 16.8948 31.4719L16.282 31.3192L12.4807 46.5609C12.1935 47.2754 11.4635 48.3469 9.81751 47.9412C9.87514 48.0255 5.59394 46.8891 5.59394 46.8891L2.70922 53.542L10.2763 55.4271C11.6828 55.7775 13.0625 56.1474 14.4176 56.4938L12.0155 66.1536L17.8224 67.6002L20.203 58.0442C21.7864 58.4736 23.3255 58.8701 24.8348 59.2461L22.4614 68.7558L28.2724 70.2035L30.6734 60.5652C40.5841 62.4403 48.0451 61.6831 51.1786 52.7164C53.7062 45.4985 51.0536 41.3309 45.8377 38.6166C49.6402 37.7472 52.5028 35.2505 53.2642 30.0905ZM39.9853 48.7139C38.1876 55.9302 26.0333 52.0333 22.0893 51.0508L25.2781 38.2505C29.22 39.2413 41.8599 41.1892 39.9853 48.7139ZM41.7772 29.9845C40.1413 36.5512 30.0186 33.2128 26.7358 32.3993L29.6265 20.7956C32.9124 21.6142 43.4868 23.1393 41.7772 29.9845Z" fill="white"/>
<path d="M16.3657 31.0254L17.2294 31.2405L17.0706 31.8778L16.2069 31.6627L16.3657 31.0254Z" fill="white"/>
</svg>
